<svg xmlns="http://www.w3.org/2000/svg" xmlns:xlink="http://www.w3.org/1999/xlink" width="500" zoomAndPan="magnify" viewBox="0 0 375 374.999991" height="500" preserveAspectRatio="xMidYMid meet" version="1.0"><defs><g/><clipPath id="5d93c8747f"><path d="M 31.046875 31.605469 L 337.769531 31.605469 L 337.769531 337.605469 L 31.046875 337.605469 Z M 31.046875 31.605469 " clip-rule="nonzero"/></clipPath></defs><g clip-path="url(#5d93c8747f)"><path fill="#000000" d="M 184.4375 31.757812 C 99.828125 31.757812 31.019531 100.355469 31.019531 184.703125 C 31.019531 208.992188 36.945312 231.96875 47.15625 252.648438 L 147.238281 152.542969 L 147.238281 134.496094 L 207.484375 114.140625 L 207.484375 335.683594 C 211.105469 335.03125 214.726562 334.378906 218.347656 333.386719 L 218.347656 136.136719 C 243.695312 181.09375 282.21875 216.214844 327.988281 237.546875 C 334.238281 221.140625 337.523438 203.089844 337.523438 184.703125 C 337.523438 100.355469 268.722656 31.757812 184.4375 31.757812 Z M 318.429688 258.550781 C 320.40625 255.269531 322.050781 251.996094 323.375 248.710938 C 286.175781 231.640625 253.902344 204.394531 230.199219 169.601562 C 250.28125 208.339844 281.230469 238.863281 318.429688 258.550781 Z M 168.300781 157.796875 L 147.238281 179.128906 L 57.027344 269.378906 C 60.324219 274.632812 63.945312 279.558594 68.21875 284.484375 L 147.238281 205.382812 L 147.238281 192.25 L 166.332031 173.550781 L 166.332031 213.253906 L 147.238281 231.96875 L 81.398438 297.617188 C 86.007812 301.878906 90.933594 305.8125 96.207031 309.761719 L 147.238281 258.226562 L 147.238281 245.101562 L 166.332031 226.390625 L 166.332031 266.109375 L 147.238281 284.808594 L 112.34375 319.601562 C 123.53125 325.179688 135.058594 329.777344 147.238281 333.0625 L 147.238281 298.269531 L 166.332031 279.230469 L 166.332031 336.347656 C 172.257812 336.996094 178.183594 337.324219 184.4375 337.324219 C 185.75 337.324219 187.40625 337.324219 188.71875 337.324219 L 188.71875 165.015625 C 188.71875 158.785156 183.457031 153.519531 177.519531 153.519531 C 173.574219 153.519531 170.617188 155.164062 168.300781 157.796875 Z M 168.300781 157.796875 " fill-opacity="1" fill-rule="evenodd"/></g><g fill="#000000" fill-opacity="1"><g transform="translate(282.045132, 137.973807)"><g><path d="M 5.515625 0.171875 C 4.816406 0.171875 4.203125 0.03125 3.671875 -0.25 C 3.148438 -0.53125 2.75 -0.914062 2.46875 -1.40625 C 2.1875 -1.90625 2.046875 -2.46875 2.046875 -3.09375 C 2.046875 -3.71875 2.1875 -4.273438 2.46875 -4.765625 C 2.75 -5.265625 3.148438 -5.65625 3.671875 -5.9375 C 4.203125 -6.226562 4.816406 -6.375 5.515625 -6.375 C 6.210938 -6.375 6.820312 -6.234375 7.34375 -5.953125 C 7.875 -5.671875 8.28125 -5.28125 8.5625 -4.78125 C 8.84375 -4.289062 8.984375 -3.734375 8.984375 -3.109375 C 8.984375 -2.160156 8.664062 -1.375 8.03125 -0.75 C 7.40625 -0.132812 6.566406 0.171875 5.515625 0.171875 Z M 5.515625 0.171875 "/></g></g></g></svg>